# Blender 4.1.0
# www.blender.org
mtllib aquarium.mtl
o Plane
v -1.025000 -1.000000 1.025000
v -1.000000 -1.000000 0.975000
v 1.025000 -1.000000 1.025000
v -1.000000 -1.000000 -1.025000
v -1.025000 -1.000000 -1.025000
v 1.000000 -1.000000 -1.025000
v -1.000000 1.000000 0.975000
v 1.025000 -1.000000 -1.025000
v -1.000000 1.000000 -1.025000
v -0.973750 -1.000000 0.973750
v 0.973750 -1.000000 0.973750
v -0.975000 -1.000000 1.000000
v -0.973750 -1.000000 -0.973750
v 1.000000 -1.000000 0.975000
v 0.973750 -1.000000 -0.973750
v -0.975000 1.000000 1.000000
v -1.000000 -1.000000 1.025000
v -1.025000 -1.066667 -1.025000
v -0.975000 -1.000000 -1.000000
v -1.025000 -1.066667 1.025000
v 1.025000 -1.066667 1.025000
v -1.000000 1.000000 1.025000
v -1.025000 1.000000 1.025000
v 1.025000 -1.066667 -1.025000
v -1.025000 -1.000000 1.000000
v -0.973750 -1.066667 -0.973750
v -0.973750 -1.066667 0.973750
v -0.975000 1.000000 -1.000000
v 0.973750 -1.066667 0.973750
v -1.025000 1.000000 1.000000
v 1.000000 1.000000 0.975000
v 0.973750 -1.066667 -0.973750
v -1.000000 -1.000000 -0.975000
v 1.025000 -1.000000 1.000000
v 1.000000 1.000000 -1.025000
v -1.000000 1.000000 -0.975000
v -1.025000 -1.000000 -1.000000
v 1.025000 1.000000 1.025000
v -1.025000 1.000000 -1.000000
v 1.025000 1.000000 1.000000
v 1.000000 -1.000000 1.025000
v 1.025000 -1.000000 -1.000000
v 1.000000 1.000000 1.025000
v -1.025000 1.000000 -1.025000
v 1.025000 1.000000 -1.025000
v 0.975000 -1.000000 1.000000
v 0.975000 1.000000 1.000000
v 1.025000 1.000000 -1.000000
v 1.000000 -1.000000 -0.975000
v -0.973750 1.000000 0.973750
v 1.000000 1.000000 -0.975000
v 0.973750 1.000000 0.973750
v 0.975000 -1.000000 -1.000000
v -0.973750 1.000000 -0.973750
v 0.975000 1.000000 -1.000000
v 0.973750 1.000000 -0.973750
v -1.025000 1.066667 -1.025000
v -1.025000 1.066667 1.025000
v 1.025000 1.066667 1.025000
v 1.025000 1.066667 -1.025000
v -0.973750 1.066667 -0.973750
v -0.973750 1.066667 0.973750
v 0.973750 1.066667 0.973750
v 0.973750 1.066667 -0.973750
v 1.012500 1.000000 -1.012500
v 0.987500 1.000000 -0.987500
v 1.012500 1.000000 1.012500
v 0.987500 1.000000 0.987500
v -0.987500 1.000000 -0.987500
v -1.012500 1.000000 -1.012500
v -0.987500 1.000000 0.987500
v -1.012500 1.000000 1.012500
v 1.012500 -1.000000 -1.012500
v 0.987500 -1.000000 -0.987500
v 1.012500 -1.000000 1.012500
v 0.987500 -1.000000 0.987500
v -0.987500 -1.000000 -0.987500
v -1.012500 -1.000000 -1.012500
v -0.987500 -1.000000 0.987500
v -1.012500 -1.000000 1.012500
vn -0.0000 -1.0000 -0.0000
vn -0.0000 1.0000 -0.0000
vn 1.0000 -0.0000 -0.0000
vn -1.0000 -0.0000 -0.0000
vn -0.0000 -0.0000 1.0000
vn -0.0000 -0.0000 -1.0000
vn 0.7071 -0.0000 -0.7071
vn 0.7071 -0.0000 0.7071
vn -0.7071 -0.0000 0.7071
vn -0.7071 -0.0000 -0.7071
vt 0.012313 1.000000
vt 0.987687 1.000000
vt 1.000000 1.000000
vt 0.000000 1.000000
vt 0.012195 1.000000
vt 0.987805 1.000000
vt 0.012195 0.000000
vt 0.000000 0.000000
vt 1.000000 0.000000
vt 0.987687 0.000000
vt 0.012313 0.000000
vt 0.987805 0.000000
vt 1.000000 0.987805
vt 1.000000 0.012195
vt 1.000000 0.987687
vt 1.000000 0.012313
vt 0.000000 0.012195
vt 0.000000 0.012313
vt 0.000000 0.987687
vt 0.000000 0.987805
vt 1.000000 0.012195
vt 0.000000 0.012195
vt 0.012195 1.000000
vt 0.012195 0.000000
vt 0.875000 1.000000
vt 0.750000 0.500000
vt 0.875000 0.500000
vt 0.750000 1.000000
vt 0.500000 0.500000
vt 0.375000 1.000000
vt 0.250000 0.500000
vt 0.375000 0.500000
vt 0.250000 1.000000
vt 1.000000 0.500000
vt 0.625000 1.000000
vt 0.625000 0.500000
vt 0.500000 1.000000
vt 0.125000 1.000000
vt 0.000000 0.500000
vt 0.125000 0.500000
vt 0.012313 1.000000
vt 0.012313 0.000000
vt 1.000000 0.012313
vt 0.000000 0.012313
s 0
usemtl Material.002
f 28/1/1 55/2/1 56/3/1
f 44/4/1 9/5/1 70/4/1
f 35/6/1 45/3/1 65/3/1
f 22/7/1 23/8/1 72/8/1
f 52/9/1 47/10/1 16/11/1
f 38/9/1 43/12/1 67/9/1
f 48/13/1 65/3/1 45/3/1
f 38/9/1 67/9/1 40/14/1
f 51/15/1 31/16/1 52/9/1
f 72/8/1 23/8/1 30/17/1
f 50/8/1 7/18/1 36/19/1
f 44/4/1 70/4/1 39/20/1
f 57/4/2 64/3/2 60/3/2
f 59/9/2 62/8/2 58/8/2
f 60/3/2 63/9/2 59/9/2
f 58/8/2 61/4/2 57/4/2
f 54/4/3 62/8/3 50/8/3
f 59/9/3 40/21/3 48/13/3
f 57/4/4 39/20/4 30/22/4
f 56/3/5 61/4/5 54/4/5
f 50/8/6 63/9/6 52/9/6
f 60/3/6 35/6/6 9/23/6
f 58/8/5 22/24/5 43/12/5
f 52/9/4 64/3/4 56/3/4
f 65/25/7 42/26/7 73/27/7
f 48/28/8 49/29/8 42/26/8
f 66/30/9 53/31/9 74/32/9
f 35/4/10 53/31/10 55/33/10
f 31/3/7 34/26/7 14/34/7
f 67/35/8 41/29/8 75/36/8
f 43/37/9 46/31/9 41/29/9
f 68/38/10 14/39/10 76/40/10
f 9/3/7 19/26/7 4/34/7
f 69/35/8 33/29/8 77/36/8
f 36/37/9 37/31/9 33/29/9
f 70/38/10 4/39/10 78/40/10
f 71/25/7 79/27/7 7/3/7
f 16/28/8 17/29/8 12/26/8
f 72/30/9 25/31/9 80/32/9
f 2/39/10 30/33/10 7/4/10
f 53/2/2 19/41/2 15/3/2
f 73/3/2 8/3/2 6/6/2
f 5/4/2 78/4/2 4/5/2
f 80/8/2 1/8/2 17/24/2
f 12/42/2 46/10/2 10/8/2
f 3/9/2 75/9/2 41/12/2
f 14/43/2 49/15/2 15/3/2
f 3/9/2 34/21/2 75/9/2
f 42/13/2 8/3/2 73/3/2
f 5/4/2 37/20/2 78/4/2
f 33/19/2 2/44/2 10/8/2
f 25/17/2 1/8/2 80/8/2
f 32/3/1 18/4/1 24/3/1
f 27/8/1 21/9/1 20/8/1
f 29/9/1 24/3/1 21/9/1
f 26/4/1 20/8/1 18/4/1
f 27/8/3 13/4/3 10/8/3
f 42/13/3 21/9/3 8/3/3
f 37/20/4 18/4/4 20/8/4
f 26/4/5 15/3/5 13/4/5
f 29/9/6 10/8/6 11/9/6
f 6/6/6 24/3/6 18/4/6
f 41/12/5 20/8/5 3/9/5
f 32/3/4 11/9/4 15/3/4
f 56/3/1 54/4/1 69/4/1
f 28/1/1 9/5/1 35/6/1
f 56/3/1 69/4/1 28/1/1
f 55/2/1 66/3/1 56/3/1
f 28/1/1 35/6/1 55/2/1
f 71/8/1 50/8/1 52/9/1
f 52/9/1 68/9/1 47/10/1
f 47/10/1 43/12/1 22/7/1
f 16/11/1 71/8/1 52/9/1
f 47/10/1 22/7/1 16/11/1
f 52/9/1 56/3/1 66/3/1
f 51/15/1 48/13/1 40/14/1
f 52/9/1 66/3/1 51/15/1
f 31/16/1 68/9/1 52/9/1
f 51/15/1 40/14/1 31/16/1
f 69/4/1 54/4/1 50/8/1
f 50/8/1 71/8/1 7/18/1
f 7/18/1 30/17/1 39/20/1
f 36/19/1 69/4/1 50/8/1
f 7/18/1 39/20/1 36/19/1
f 57/4/2 61/4/2 64/3/2
f 59/9/2 63/9/2 62/8/2
f 60/3/2 64/3/2 63/9/2
f 58/8/2 62/8/2 61/4/2
f 54/4/3 61/4/3 62/8/3
f 45/3/3 60/3/3 59/9/3
f 59/9/3 38/9/3 40/21/3
f 48/13/3 45/3/3 59/9/3
f 23/8/4 58/8/4 57/4/4
f 57/4/4 44/4/4 39/20/4
f 30/22/4 23/8/4 57/4/4
f 56/3/5 64/3/5 61/4/5
f 50/8/6 62/8/6 63/9/6
f 44/4/6 57/4/6 60/3/6
f 60/3/6 45/3/6 35/6/6
f 9/23/6 44/4/6 60/3/6
f 38/9/5 59/9/5 58/8/5
f 58/8/5 23/8/5 22/24/5
f 43/12/5 38/9/5 58/8/5
f 52/9/4 63/9/4 64/3/4
f 73/27/7 6/34/7 35/3/7
f 65/25/7 48/28/7 42/26/7
f 73/27/7 35/3/7 65/25/7
f 48/28/8 51/37/8 49/29/8
f 74/32/9 49/29/9 51/37/9
f 66/30/9 55/33/9 53/31/9
f 74/32/9 51/37/9 66/30/9
f 35/4/10 6/39/10 53/31/10
f 31/3/7 40/28/7 34/26/7
f 75/36/8 34/26/8 40/28/8
f 67/35/8 43/37/8 41/29/8
f 75/36/8 40/28/8 67/35/8
f 43/37/9 47/33/9 46/31/9
f 46/31/10 47/33/10 68/38/10
f 68/38/10 31/4/10 14/39/10
f 76/40/10 46/31/10 68/38/10
f 9/3/7 28/28/7 19/26/7
f 77/36/8 19/26/8 28/28/8
f 69/35/8 36/37/8 33/29/8
f 77/36/8 28/28/8 69/35/8
f 36/37/9 39/33/9 37/31/9
f 78/40/10 37/31/10 39/33/10
f 70/38/10 9/4/10 4/39/10
f 78/40/10 39/33/10 70/38/10
f 71/25/7 16/28/7 12/26/7
f 79/27/7 2/34/7 7/3/7
f 71/25/7 12/26/7 79/27/7
f 16/28/8 22/37/8 17/29/8
f 80/32/9 17/29/9 22/37/9
f 72/30/9 30/33/9 25/31/9
f 80/32/9 22/37/9 72/30/9
f 2/39/10 25/31/10 30/33/10
f 53/2/2 6/6/2 4/5/2
f 19/41/2 77/4/2 13/4/2
f 53/2/2 4/5/2 19/41/2
f 15/3/2 74/3/2 53/2/2
f 19/41/2 13/4/2 15/3/2
f 12/42/2 17/24/2 41/12/2
f 46/10/2 76/9/2 11/9/2
f 12/42/2 41/12/2 46/10/2
f 10/8/2 79/8/2 12/42/2
f 46/10/2 11/9/2 10/8/2
f 15/3/2 11/9/2 76/9/2
f 14/43/2 34/21/2 42/13/2
f 15/3/2 76/9/2 14/43/2
f 49/15/2 74/3/2 15/3/2
f 14/43/2 42/13/2 49/15/2
f 10/8/2 13/4/2 77/4/2
f 33/19/2 37/20/2 25/17/2
f 10/8/2 77/4/2 33/19/2
f 2/44/2 79/8/2 10/8/2
f 33/19/2 25/17/2 2/44/2
f 32/3/1 26/4/1 18/4/1
f 27/8/1 29/9/1 21/9/1
f 29/9/1 32/3/1 24/3/1
f 26/4/1 27/8/1 20/8/1
f 27/8/3 26/4/3 13/4/3
f 34/21/3 3/9/3 21/9/3
f 21/9/3 24/3/3 8/3/3
f 42/13/3 34/21/3 21/9/3
f 20/8/4 1/8/4 25/17/4
f 37/20/4 5/4/4 18/4/4
f 20/8/4 25/17/4 37/20/4
f 26/4/5 32/3/5 15/3/5
f 29/9/6 27/8/6 10/8/6
f 18/4/6 5/4/6 4/5/6
f 6/6/6 8/3/6 24/3/6
f 18/4/6 4/5/6 6/6/6
f 17/24/5 1/8/5 20/8/5
f 20/8/5 21/9/5 3/9/5
f 41/12/5 17/24/5 20/8/5
f 32/3/4 29/9/4 11/9/4
