# Blender 4.0.2
# www.blender.org
o Cube
v -0.530330 -0.000000 -1.000000
v -0.000000 1.414214 -1.000000
v 0.000000 -1.414214 -1.000000
v 0.530330 0.000000 -1.000000
v -0.265165 -0.000000 2.000000
v -0.000000 0.707107 1.000000
v 0.000000 -0.707107 1.000000
v 0.265165 0.000000 2.000000
v 0.000000 -1.707107 2.500000
v 0.000000 0.000000 -3.000000
v -0.000000 1.707107 2.500000
vn -0.0000 -0.9939 -0.1106
vn -0.9978 -0.0000 -0.0661
vn -0.0000 -0.0000 -1.0000
vn 0.9978 -0.0000 -0.0661
vn -0.0000 -0.9974 0.0715
vn -0.0000 0.9974 0.0715
vn -0.8171 -0.0000 0.5764
vn 0.8171 -0.0000 0.5764
vn -0.0000 -0.8670 0.4983
vn -0.0000 0.9939 -0.1106
vn -0.0000 0.8670 0.4983
vt 0.125000 0.500000
vt 0.125000 0.750000
vt 0.625000 0.250000
vt 0.375000 0.500000
vt 0.375000 0.250000
vt 0.625000 0.750000
vt 0.375000 1.000000
vt 0.375000 0.750000
vt 0.875000 0.500000
vt 0.625000 0.500000
vt 0.625000 1.000000
vt 0.875000 0.750000
s 1
f 3/1/1 1/2/2 10/1/3
f 4/3/4 7/4/5 3/5/1
f 6/6/6 1/7/2 5/8/7
f 7/4/5 1/2/2 3/1/1
f 4/9/4 6/6/6 8/10/8
f 7/4/5 9/4/9 5/8/7
f 4/3/4 3/5/1 10/3/3
f 1/7/2 2/11/10 10/7/3
f 2/12/10 4/9/4 10/12/3
f 8/10/8 11/6/11 5/8/7
f 6/6/6 11/6/11 8/10/8
f 9/4/9 8/10/8 5/8/7
f 11/6/11 6/6/6 5/8/7
f 9/4/9 7/4/5 8/10/8
f 4/3/4 8/10/8 7/4/5
f 6/6/6 2/11/10 1/7/2
f 7/4/5 5/8/7 1/2/2
f 4/9/4 2/12/10 6/6/6
